<?xml version="1.0" encoding="UTF-8" standalone="no"?>
<!-- Generator: Adobe Illustrator 19.0.0, SVG Export Plug-In . SVG Version: 6.00 Build 0)  -->

<svg
   xmlns:dc="http://purl.org/dc/elements/1.1/"
   xmlns:cc="http://creativecommons.org/ns#"
   xmlns:rdf="http://www.w3.org/1999/02/22-rdf-syntax-ns#"
   xmlns:svg="http://www.w3.org/2000/svg"
   xmlns="http://www.w3.org/2000/svg"
   xmlns:sodipodi="http://sodipodi.sourceforge.net/DTD/sodipodi-0.dtd"
   xmlns:inkscape="http://www.inkscape.org/namespaces/inkscape"
   version="1.1"
   id="Capa_1"
   x="0px"
   y="0px"
   viewBox="0 0 269.45312 290.1994"
   xml:space="preserve"
   sodipodi:docname="call.svg"
   inkscape:version="0.92.5 (2060ec1f9f, 2020-04-08)"
   width="269.45312"
   height="290.1994"><metadata
   id="metadata918"><rdf:RDF><cc:Work
       rdf:about=""><dc:format>image/svg+xml</dc:format><dc:type
         rdf:resource="http://purl.org/dc/dcmitype/StillImage" /><dc:title></dc:title></cc:Work></rdf:RDF></metadata><defs
   id="defs916" /><sodipodi:namedview
   pagecolor="#505050"
   bordercolor="#eeeeee"
   borderopacity="1"
   objecttolerance="10"
   gridtolerance="10"
   guidetolerance="10"
   inkscape:pageopacity="0"
   inkscape:pageshadow="2"
   inkscape:window-width="1366"
   inkscape:window-height="697"
   id="namedview914"
   showgrid="false"
   inkscape:zoom="1.3385417"
   inkscape:cx="255.25526"
   inkscape:cy="132.12099"
   inkscape:window-x="0"
   inkscape:window-y="27"
   inkscape:window-maximized="1"
   inkscape:current-layer="Capa_1"
   fit-margin-top="0"
   fit-margin-left="0"
   fit-margin-right="0"
   fit-margin-bottom="0" />
<g
   id="g881"
   transform="matrix(0.53538733,0,0,0.53538733,32.914323,1.4941634)"
   style="fill:#ffffff;fill-opacity:1">
	<g
   id="g879"
   style="fill:#ffffff;fill-opacity:1">
		<path
   d="m 353.188,252.052 c -23.51,0 -46.594,-3.677 -68.469,-10.906 -10.719,-3.656 -23.896,-0.302 -30.438,6.417 l -43.177,32.594 C 161.031,253.428 130.187,222.594 103.823,172.897 l 31.635,-42.052 c 8.219,-8.208 11.167,-20.198 7.635,-31.448 C 135.833,77.407 132.145,54.334 132.145,30.814 132.146,13.823 118.323,0 101.333,0 H 30.813 C 13.823,0 0,13.823 0,30.813 0,225.563 158.438,384 353.188,384 c 16.99,0 30.813,-13.823 30.813,-30.813 V 282.864 C 384,265.875 370.177,252.052 353.188,252.052 Z"
   id="path877"
   inkscape:connector-curvature="0"
   style="fill:#ffffff;fill-opacity:1" />
	</g>
</g>
<g
   id="g883"
   transform="translate(-71.980258,-36.90991)">
</g>
<g
   id="g885"
   transform="translate(-71.980258,-36.90991)">
</g>
<g
   id="g887"
   transform="translate(-71.980258,-36.90991)">
</g>
<g
   id="g889"
   transform="translate(-71.980258,-36.90991)">
</g>
<g
   id="g891"
   transform="translate(-71.980258,-36.90991)">
</g>
<g
   id="g893"
   transform="translate(-71.980258,-36.90991)">
</g>
<g
   id="g895"
   transform="translate(-71.980258,-36.90991)">
</g>
<g
   id="g897"
   transform="translate(-71.980258,-36.90991)">
</g>
<g
   id="g899"
   transform="translate(-71.980258,-36.90991)">
</g>
<g
   id="g901"
   transform="translate(-71.980258,-36.90991)">
</g>
<g
   id="g903"
   transform="translate(-71.980258,-36.90991)">
</g>
<g
   id="g905"
   transform="translate(-71.980258,-36.90991)">
</g>
<g
   id="g907"
   transform="translate(-71.980258,-36.90991)">
</g>
<g
   id="g909"
   transform="translate(-71.980258,-36.90991)">
</g>
<g
   id="g911"
   transform="translate(-71.980258,-36.90991)">
</g>
<text
   xml:space="preserve"
   style="font-style:normal;font-weight:normal;font-size:40px;line-height:1.25;font-family:sans-serif;letter-spacing:0px;word-spacing:0px;fill:#000000;fill-opacity:1;stroke:none"
   x="-0.26041669"
   y="279.10565"
   id="text922"><tspan
     sodipodi:role="line"
     id="tspan920"
     x="-0.26041669"
     y="279.10565"
     style="font-style:normal;font-variant:normal;font-weight:bold;font-stretch:normal;font-size:53.33333588px;font-family:sans-serif;-inkscape-font-specification:'sans-serif Bold';fill:#ffffff">Телефон</tspan></text>


</svg>