<?xml version="1.0" encoding="UTF-8" standalone="no"?>
<!-- Generator: Adobe Illustrator 19.0.0, SVG Export Plug-In . SVG Version: 6.00 Build 0)  -->

<svg
   xmlns:dc="http://purl.org/dc/elements/1.1/"
   xmlns:cc="http://creativecommons.org/ns#"
   xmlns:rdf="http://www.w3.org/1999/02/22-rdf-syntax-ns#"
   xmlns:svg="http://www.w3.org/2000/svg"
   xmlns="http://www.w3.org/2000/svg"
   xmlns:sodipodi="http://sodipodi.sourceforge.net/DTD/sodipodi-0.dtd"
   xmlns:inkscape="http://www.inkscape.org/namespaces/inkscape"
   version="1.1"
   id="Layer_1"
   x="0px"
   y="0px"
   viewBox="0 0 233.07812 293.13986"
   xml:space="preserve"
   sodipodi:docname="envelope.svg"
   width="233.07812"
   height="293.13986"
   inkscape:version="0.92.5 (2060ec1f9f, 2020-04-08)"><metadata
   id="metadata4700"><rdf:RDF><cc:Work
       rdf:about=""><dc:format>image/svg+xml</dc:format><dc:type
         rdf:resource="http://purl.org/dc/dcmitype/StillImage" /><dc:title></dc:title></cc:Work></rdf:RDF></metadata><defs
   id="defs4698" /><sodipodi:namedview
   pagecolor="#505050"
   bordercolor="#eeeeee"
   borderopacity="1"
   objecttolerance="10"
   gridtolerance="10"
   guidetolerance="10"
   inkscape:pageopacity="0"
   inkscape:pageshadow="2"
   inkscape:window-width="1366"
   inkscape:window-height="697"
   id="namedview4696"
   showgrid="false"
   inkscape:snap-smooth-nodes="true"
   inkscape:snap-midpoints="true"
   inkscape:object-paths="true"
   inkscape:snap-intersection-paths="true"
   inkscape:snap-bbox="true"
   inkscape:bbox-paths="true"
   inkscape:bbox-nodes="true"
   inkscape:snap-bbox-edge-midpoints="true"
   inkscape:snap-bbox-midpoints="true"
   inkscape:snap-object-midpoints="true"
   inkscape:snap-center="true"
   inkscape:snap-text-baseline="true"
   fit-margin-top="0"
   fit-margin-left="0"
   fit-margin-right="0"
   fit-margin-bottom="0"
   inkscape:zoom="0.4609375"
   inkscape:cx="-289.15586"
   inkscape:cy="79.90506"
   inkscape:window-x="0"
   inkscape:window-y="27"
   inkscape:window-maximized="1"
   inkscape:current-layer="Layer_1" />
<g
   id="g4663"
   style="fill:#fffff1;fill-opacity:1"
   transform="matrix(0.45523072,0,0,0.45523072,0,-29.134766)">
	<g
   id="g4661"
   style="fill:#fffff1;fill-opacity:1">
		<g
   id="g4659"
   style="fill:#fffff1;fill-opacity:1">
			<path
   d="m 10.688,95.156 c 70.27,59.511 193.572,164.209 229.812,196.854 4.865,4.406 10.083,6.646 15.5,6.646 5.406,0 10.615,-2.219 15.469,-6.604 36.271,-32.677 159.573,-137.385 229.844,-196.896 4.375,-3.698 5.042,-10.198 1.5,-14.719 C 494.625,69.99 482.417,64 469.333,64 H 42.667 c -13.083,0 -25.292,5.99 -33.479,16.438 -3.542,4.52 -2.875,11.02 1.5,14.718 z"
   id="path4655"
   style="fill:#fffff1;fill-opacity:1"
   inkscape:connector-curvature="0" />
			<path
   d="m 505.813,127.406 c -3.781,-1.76 -8.229,-1.146 -11.375,1.542 C 416.51,195.01 317.052,279.688 285.76,307.885 268.197,323.739 243.822,323.739 226.218,307.864 192.864,277.812 81.176,182.864 17.562,128.947 14.395,126.259 9.937,125.666 6.187,127.405 2.417,129.156 0,132.927 0,137.083 v 268.25 C 0,428.865 19.135,448 42.667,448 H 469.334 C 492.865,448 512,428.865 512,405.333 v -268.25 c 0,-4.156 -2.417,-7.937 -6.187,-9.677 z"
   id="path4657"
   style="fill:#fffff1;fill-opacity:1"
   inkscape:connector-curvature="0" />
		</g>
	</g>
</g>
<g
   id="g4665"
   transform="translate(-148.13891,-42.765193)">
</g>
<g
   id="g4667"
   transform="translate(-148.13891,-42.765193)">
</g>
<g
   id="g4669"
   transform="translate(-148.13891,-42.765193)">
</g>
<g
   id="g4671"
   transform="translate(-148.13891,-42.765193)">
</g>
<g
   id="g4673"
   transform="translate(-148.13891,-42.765193)">
</g>
<g
   id="g4675"
   transform="translate(-148.13891,-42.765193)">
</g>
<g
   id="g4677"
   transform="translate(-148.13891,-42.765193)">
</g>
<g
   id="g4679"
   transform="translate(-148.13891,-42.765193)">
</g>
<g
   id="g4681"
   transform="translate(-148.13891,-42.765193)">
</g>
<g
   id="g4683"
   transform="translate(-148.13891,-42.765193)">
</g>
<g
   id="g4685"
   transform="translate(-148.13891,-42.765193)">
</g>
<g
   id="g4687"
   transform="translate(-148.13891,-42.765193)">
</g>
<g
   id="g4689"
   transform="translate(-148.13891,-42.765193)">
</g>
<g
   id="g4691"
   transform="translate(-148.13891,-42.765193)">
</g>
<g
   id="g4693"
   transform="translate(-148.13891,-42.765193)">
</g>
<text
   xml:space="preserve"
   style="font-style:normal;font-weight:normal;font-size:40px;line-height:1.25;font-family:sans-serif;letter-spacing:0px;word-spacing:0px;fill:#000000;fill-opacity:1;stroke:none"
   x="4.2734437"
   y="292.23361"
   id="text5269"><tspan
     sodipodi:role="line"
     id="tspan5267"
     x="4.2734437"
     y="292.23361"
     style="font-style:normal;font-variant:normal;font-weight:bold;font-stretch:normal;font-size:64px;font-family:sans-serif;-inkscape-font-specification:'sans-serif Bold';fill:#ffffff">E-mail</tspan></text>
</svg>