<?xml version="1.0" encoding="UTF-8" standalone="no"?>
<svg
   xmlns:dc="http://purl.org/dc/elements/1.1/"
   xmlns:cc="http://creativecommons.org/ns#"
   xmlns:rdf="http://www.w3.org/1999/02/22-rdf-syntax-ns#"
   xmlns:svg="http://www.w3.org/2000/svg"
   xmlns="http://www.w3.org/2000/svg"
   xmlns:sodipodi="http://sodipodi.sourceforge.net/DTD/sodipodi-0.dtd"
   xmlns:inkscape="http://www.inkscape.org/namespaces/inkscape"
   id="Layer_1"
   version="1.1"
   viewBox="0 0 25.364401 29.037991"
   xml:space="preserve"
   sodipodi:docname="facebook.svg"
   width="25.364401"
   height="29.037991"
   inkscape:version="0.92.5 (2060ec1f9f, 2020-04-08)"><metadata
     id="metadata904"><rdf:RDF><cc:Work
         rdf:about=""><dc:format>image/svg+xml</dc:format><dc:type
           rdf:resource="http://purl.org/dc/dcmitype/StillImage" /><dc:title></dc:title></cc:Work></rdf:RDF></metadata><defs
     id="defs902" /><sodipodi:namedview
     pagecolor="#505050"
     bordercolor="#eeeeee"
     borderopacity="1"
     objecttolerance="10"
     gridtolerance="10"
     guidetolerance="10"
     inkscape:pageopacity="0"
     inkscape:pageshadow="2"
     inkscape:window-width="1366"
     inkscape:window-height="697"
     id="namedview900"
     showgrid="false"
     fit-margin-top="0"
     fit-margin-left="0"
     fit-margin-right="0"
     fit-margin-bottom="0"
     inkscape:zoom="10.708333"
     inkscape:cx="12.6822"
     inkscape:cy="14.518999"
     inkscape:window-x="0"
     inkscape:window-y="27"
     inkscape:window-maximized="1"
     inkscape:current-layer="Layer_1" /><path
     d="m 10.4918,20.595642 -0.107,-8.3496 -3.4644,-0.0195 0.0973,-4.0385 h 3.406 v -2.9195 c 0,-0.9032 0.1786,-1.8603 0.5569,-2.6827 0.3166,-0.6885 0.8027,-1.2861 1.4319,-1.71160003 0.3163,-0.2138 0.6615,-0.3828 1.0202,-0.5125 0.5563,-0.201 1.198,-0.3459 1.7899,-0.3596 0.3088,-0.0072 0.6186,0.0053 0.9274,0.0146 0.1594,0.0047 2.294,0.0598 2.294,0.0746 L 18.3451,3.779642 c 0,0 -0.4768,-0.0195 -2.1506,0 -1.6446,0.0195 -1.6641,1.2456 -1.6641,1.304 l -0.0195,3.1044 3.8342,0.0681 -0.5546,3.9704 h -3.2601 l -0.0876,8.3691 c 0,0 -3.951,0 -3.951,0 z"
     style="fill:#ffffff;fill-opacity:1"
     id="path895"
     inkscape:connector-curvature="0" /><path
     d="m 8.2343,28.121942 c 0,-0.0161 -0.0061,-0.0322 -0.0101,-0.0523 -0.1448,0.0241 -0.2815,0.0483 -0.4202,0.0684 -0.2715,0.0402 -0.545,0.0603 -0.8185,0.0221 -0.201,-0.0282 -0.3277,-0.1388 -0.3378,-0.3398 -0.0161,-0.3519 -0.0221,-0.7058 -0.008,-1.0577 0.01,-0.2494 0.1267,-0.3519 0.372,-0.3861 0.2352,-0.0342 0.4685,-0.0201 0.7018,0.0101 0.1689,0.0221 0.3358,0.0502 0.5067,0.0764 0.006,-0.0141 0.01,-0.0181 0.01,-0.0242 0.002,-0.2493 0.0041,-0.5007 0,-0.752 0,-0.0201 -0.0362,-0.0543 -0.0603,-0.0603 -0.1025,-0.0262 -0.2051,-0.0443 -0.3076,-0.0604 -0.4002,-0.0643 -0.8003,-0.0925 -1.2005,-0.01 -0.3459,0.0724 -0.6354,0.2332 -0.8345,0.5349 -0.1528,0.2312 -0.2111,0.4906 -0.2192,0.7641 -0.006,0.2553 -0.006,0.5127 0,0.7681 0.004,0.1367 0.0181,0.2775 0.0483,0.4102 0.0824,0.37 0.2855,0.6495 0.6274,0.8224 0.2232,0.1147 0.4645,0.1589 0.7098,0.175 0.4001,0.0281 0.7922,-0.0302 1.1823,-0.1126 0.0483,-0.0101 0.0604,-0.0362 0.0604,-0.0825 -0.002,-0.2372 -0.002,-0.4745 -0.002,-0.7138 z m -6.3985,-3.3903 c 0.1529,-0.008 0.3077,-0.01 0.4605,-0.012 0.0503,0 0.0704,-0.0181 0.0704,-0.0684 -0.002,-0.2433 -0.002,-0.4866 0,-0.7299 0,-0.0402 -0.0121,-0.0644 -0.0583,-0.0624 -0.3278,0.0121 -0.6575,0.0081 -0.9853,0.0382 -0.2313,0.0201 -0.4323,0.1287 -0.5791,0.3218 -0.1508,0.195 -0.1951,0.4242 -0.2051,0.6615 -0.0081,0.187 -0.0021,0.3761 -0.0021,0.5651 0,0.1005 -0.008,0.1065 -0.1065,0.1065 H 0.0764 C 0.0261,25.550042 0,25.564142 0,25.620442 c 0.002,0.2413 0.002,0.4826 0,0.7219 0,0.0503 0.0201,0.0704 0.0703,0.0704 0.1126,-0.002 0.2252,-0.002 0.3378,0 0.1287,0 0.1287,0 0.1287,0.1287 0,0.7842 0,1.5684 -0.002,2.3526 0,0.0764 0.0222,0.0986 0.0966,0.0986 0.2734,-0.0041 0.5449,-0.0021 0.8164,-0.0021 0.1206,0 0.1206,0 0.1206,-0.1186 -0.002,-0.7802 -0.002,-1.5624 -0.004,-2.3446 0,-0.1186 0.002,-0.1186 0.1166,-0.1186 0.1689,0 0.3398,-0.002 0.5087,0.002 0.0724,0.002 0.0966,-0.0262 0.1006,-0.0945 0.002,-0.0805 0.0161,-0.1609 0.0241,-0.2413 0.0161,-0.1689 0.0342,-0.3358 0.0523,-0.5128 -0.0262,-0.004 -0.0422,-0.006 -0.0563,-0.006 -0.2172,0 -0.4344,-0.0041 -0.6515,0 -0.0724,0.002 -0.0965,-0.0262 -0.0945,-0.0966 0.004,-0.1508 0,-0.3036 0.004,-0.4544 0.006,-0.1729 0.0945,-0.2654 0.2674,-0.2735 z m 3.3822,2.29639 c -0.002,-0.2232 -0.014,-0.4484 -0.0462,-0.6676 -0.0463,-0.3097 -0.2031,-0.549 -0.5047,-0.6736 -0.2112,-0.0885 -0.4364,-0.1227 -0.6636,-0.1287 -0.38,-0.0081 -0.7621,-0.002 -1.1442,-0.004 H 2.7568 c -0.0302,0.2895 -0.0583,0.569 -0.0865,0.8606 h 0.1006 c 0.3157,0 0.6314,-0.004 0.9491,0.002 0.0864,0.002 0.1749,0.0201 0.2594,0.0443 0.1065,0.0301 0.1709,0.1065 0.1809,0.2211 0.0081,0.0986 0.0101,0.1971 0.0161,0.2956 0.004,0.0523 -0.0161,0.0724 -0.0704,0.0724 -0.2795,0.002 -0.559,0.0061 -0.8385,0.0161 -0.0945,0.002 -0.191,0.0121 -0.2855,0.0322 -0.3258,0.0704 -0.557,0.2513 -0.6374,0.5871 -0.0403,0.175 -0.0503,0.3499 -0.0201,0.5289 0.0462,0.2815 0.1608,0.5208 0.4122,0.6776 0.2875,0.179 0.6012,0.1589 0.9149,0.1127 0.2051,-0.0302 0.3981,-0.1006 0.5811,-0.1951 0.0664,-0.0342 0.0865,-0.0221 0.0986,0.0523 0.008,0.0442 0.016,0.0905 0.0241,0.1347 H 5.22 v -0.1025 c 1e-4,-0.62139 0.0041,-1.24269 -0.002,-1.8661 z m -1.0436,1.06571 c -0.002,0.0262 -0.0201,0.0644 -0.0422,0.0744 -0.1508,0.0764 -0.3076,0.1388 -0.4826,0.1348 -0.2192,-0.0061 -0.3459,-0.177 -0.2916,-0.3901 0.0242,-0.0905 0.0845,-0.1388 0.171,-0.1488 0.1105,-0.0141 0.3338,-0.0161 0.3338,-0.0161 0.0784,0 0.1568,0 0.2352,-0.002 0.0523,0 0.0784,0.0181 0.0764,0.0744 0,0.0904 0.004,0.1829 0,0.2734 z m 16.6697,-0.83251 c 0,0 0.0041,0.3399 -0.008,0.5088 -0.0141,0.2192 -0.1307,0.3459 -0.3439,0.3881 -0.1307,0.0241 -0.2634,0.0221 -0.3921,-0.0262 -0.1367,-0.0502 -0.2413,-0.1447 -0.2473,-0.2875 -0.0161,-0.366 -0.0221,-0.736 -0.006,-1.1019 0.01,-0.2212 0.1608,-0.3479 0.38,-0.372 0.1327,-0.0141 0.2675,-0.0121 0.3901,0.0522 0.1649,0.0825 0.2232,0.2273 0.2272,0.4002 0.0041,0.1468 0,0.29161 0,0.4383 z m -2.415,-0.69969 c -0.0703,-0.4645 -0.3237,-0.7963 -0.7822,-0.9471 -0.4283,-0.1408 -0.8646,-0.1428 -1.299,-0.0422 -0.5348,0.1246 -0.8566,0.4625 -0.931,1.0094 -0.0301,0.2252 -0.008,0.4524 -0.022,0.6917 0.014,0.2252 -0.0081,0.4665 0.0261,0.6998 0.0603,0.4142 0.2754,0.7279 0.6655,0.9028 0.2635,0.1167 0.543,0.1488 0.8245,0.1529 0.2373,0.004 0.4745,-0.0222 0.7018,-0.0966 0.2553,-0.0824 0.4765,-0.2191 0.6273,-0.4544 0.1368,-0.2152 0.2011,-0.4504 0.2092,-0.7038 0.014,-0.4042 0.0402,-0.8103 -0.0202,-1.2125 z m 3.40374,0 c -0.0703,-0.4645 -0.3237,-0.7963 -0.7822,-0.9471 -0.4283,-0.1408 -0.8646,-0.1428 -1.299,-0.0422 -0.5348,0.1246 -0.8566,0.4625 -0.931,1.0094 -0.0301,0.2252 -0.008,0.4524 -0.022,0.6917 0.014,0.2252 -0.0081,0.4665 0.0261,0.6998 0.0603,0.4142 0.2754,0.7279 0.6655,0.9028 0.2635,0.1167 0.543,0.1488 0.8245,0.1529 0.2373,0.004 0.4745,-0.0222 0.7018,-0.0966 0.2553,-0.0824 0.4765,-0.2191 0.6273,-0.4544 0.1368,-0.2152 0.2011,-0.4504 0.2092,-0.7038 0.014,-0.4042 0.0402,-0.8103 -0.0202,-1.2125 z m -4.41714,1.2085 c -0.006,0.2111 -0.1388,0.3599 -0.3479,0.3881 -0.0985,0.0141 -0.2031,0.0141 -0.3016,-0.002 -0.2132,-0.0342 -0.3418,-0.1891 -0.3459,-0.4103 -0.004,-0.3197 -0.004,-0.6374 0,-0.9571 0.0041,-0.2373 0.1689,-0.4022 0.4123,-0.4203 0.1206,-0.008 0.2453,-0.008 0.3599,0.0483 0.1387,0.0684 0.2111,0.181 0.2232,0.3338 0.002,0.0121 0.002,0.0261 0.002,0.0382 v 0.4866 c 0,0.1649 0.004,0.3298 -0.002,0.4947 z m -5.8596,-1.1341 c -0.0402,-0.5389 -0.3257,-0.919 -0.8666,-1.0577 -0.4002,-0.1026 -0.8023,-0.0985 -1.2025,-0.004 -0.5127,0.1206 -0.8526,0.5208 -0.8807,1.0456 -0.0181,0.3157 -0.0161,0.6334 -0.0161,0.9491 0,0.1247 0.0101,0.2514 0.0302,0.374 0.0663,0.3841 0.2493,0.6958 0.5992,0.8888 0.2151,0.1206 0.4504,0.1749 0.6957,0.191 0.5047,0.0382 1.0014,-0.002 1.4961,-0.1065 0.0523,-0.0101 0.0724,-0.0342 0.0703,-0.0885 -0.002,-0.2313 0,-0.4605 0,-0.6918 0,-0.0201 -0.004,-0.0402 -0.006,-0.0562 -0.2594,0.0301 -0.5148,0.0703 -0.7701,0.0824 -0.2534,0.0141 -0.5068,0.0101 -0.7581,-0.008 -0.1629,-0.0141 -0.2775,-0.1167 -0.3117,-0.2876 -0.0121,-0.0563 -0.0201,-0.1126 -0.0221,-0.1709 -0.004,-0.1267 0.002,-0.1307 0.1307,-0.1307 0.5791,0 1.1602,-0.002 1.7393,0 0.0644,0 0.0885,-0.0161 0.0885,-0.0825 -0.008,-0.2815 0.0041,-0.565 -0.0161,-0.8465 z m -1.0194,0.18499 c -0.002,0.0221 -0.0423,0.0543 -0.0664,0.0563 -0.1287,0.004 -0.2594,0.002 -0.3901,0.002 -0.1307,0 -0.2614,-0.002 -0.3901,0 -0.0462,0 -0.0724,-0.0201 -0.0684,-0.0643 0.0081,-0.1006 0.0061,-0.2052 0.0362,-0.2997 0.0543,-0.1669 0.1971,-0.2232 0.36,-0.2393 0.0543,-0.004 0.1106,-0.004 0.1649,0.0041 0.3137,0.04421 0.376,0.27751 0.3539,0.5409 z m 14.6347,1.83181 c -0.2674,-0.4444 -0.5308,-0.8867 -0.8003,-1.3291 -0.0422,-0.0704 -0.0462,-0.1247 0.002,-0.1971 0.2916,-0.4544 0.5811,-0.9129 0.8687,-1.3693 0.0422,-0.0644 0.0804,-0.1287 0.1206,-0.1971 -0.0201,-0.006 -0.0261,-0.0121 -0.0341,-0.0121 -0.3318,0 -0.6636,0.002 -0.9954,0 -0.0543,0 -0.0865,0.0201 -0.1146,0.0644 -0.1649,0.2634 -0.3338,0.5248 -0.4987,0.7882 -0.1227,0.191 -0.2433,0.3841 -0.366,0.5751 -0.0201,0.0302 -0.0502,0.0563 -0.0744,0.0845 -0.01,-0.0041 -0.0201,-0.0081 -0.0301,-0.0121 v -3.0906 c -0.0282,0.004 -0.0382,0.004 -0.0483,0.004 -0.2875,0.0502 -0.5751,0.0985 -0.8646,0.1468 -0.1167,0.0181 -0.1187,0.0161 -0.1187,0.1347 v 3.9995 c 0,0.2091 0,0.4183 0.002,0.6274 0,0.1186 0,0.1206 0.1146,0.1206 h 0.8084 c 0.1086,0 0.1086,0 0.1086,-0.1086 0,-0.4645 -0.002,-0.931 -0.002,-1.3955 0,-0.0261 0.008,-0.0523 0.01,-0.0804 0.0101,-0.002 0.0181,-0.004 0.0262,-0.0081 0.0301,0.0423 0.0643,0.0825 0.0904,0.1267 0.2796,0.4625 0.557,0.925 0.8345,1.3895 0.0342,0.0543 0.0724,0.0784 0.1388,0.0784 0.3016,-0.004 0.6052,-0.002 0.9089,-0.002 0.0301,0 0.0583,-0.006 0.1065,-0.01 -0.0703,-0.1186 -0.1306,-0.2232 -0.193,-0.3278 z m -10.1305,-1.8298 c -0.004,-0.2071 -0.0181,-0.4183 -0.0543,-0.6214 -0.0503,-0.2915 -0.2212,-0.5006 -0.5047,-0.5972 -0.4464,-0.1488 -0.8948,-0.1226 -1.3432,-0.008 -0.1388,0.0362 -0.1448,0.0362 -0.1448,-0.1026 0.002,-0.4785 0.004,-0.9571 0.008,-1.4357 v -0.0945 c -0.0261,-0.002 -0.0342,-0.004 -0.0402,-0.004 -0.3097,0.0523 -0.6193,0.1045 -0.927,0.1548 -0.0483,0.0061 -0.0684,0.0282 -0.0663,0.0764 0.004,0.0925 0.004,0.183 0.004,0.2755 v 4.3032 c 0,0.0241 0.002,0.0462 0,0.0703 -0.0021,0.0443 0.014,0.0644 0.0603,0.0704 0.3479,0.0382 0.6917,0.0945 1.0396,0.1166 0.3901,0.0242 0.7822,0.0141 1.1622,-0.1025 0.2092,-0.0644 0.3962,-0.1669 0.5409,-0.3398 0.187,-0.2252 0.2454,-0.4947 0.2554,-0.7742 0.0121,-0.3278 0.0161,-0.6575 0.0101,-0.9873 z m -1.0416,0.9109 c -0.01,0.2835 -0.1689,0.4203 -0.4665,0.4424 -0.1448,0.01 -0.2916,0 -0.4384,0.002 -0.0683,0.002 -0.0905,-0.0262 -0.0905,-0.0925 0.0021,-0.2473 0,-0.4947 0,-0.744 0,-0.2474 0.0021,-0.4947 0,-0.744 0,-0.0644 0.0222,-0.0966 0.0825,-0.1227 0.1629,-0.0663 0.3278,-0.1146 0.5067,-0.1086 0.2494,0.0061 0.4042,0.1488 0.4082,0.3962 0.004,0.32369 0.0081,0.6495 -0.002,0.9712 z"
     style="fill:#ffffff;fill-opacity:1"
     id="path897"
     inkscape:connector-curvature="0" /></svg>