<?xml version="1.0" encoding="UTF-8" standalone="no"?>
<!-- Generator: Adobe Illustrator 16.0.0, SVG Export Plug-In . SVG Version: 6.00 Build 0)  -->

<svg
   xmlns:dc="http://purl.org/dc/elements/1.1/"
   xmlns:cc="http://creativecommons.org/ns#"
   xmlns:rdf="http://www.w3.org/1999/02/22-rdf-syntax-ns#"
   xmlns:svg="http://www.w3.org/2000/svg"
   xmlns="http://www.w3.org/2000/svg"
   xmlns:sodipodi="http://sodipodi.sourceforge.net/DTD/sodipodi-0.dtd"
   xmlns:inkscape="http://www.inkscape.org/namespaces/inkscape"
   version="1.1"
   id="Capa_1"
   x="0px"
   y="0px"
   width="123.961px"
   height="123.961px"
   viewBox="0 0 123.961 123.961"
   style="enable-background:new 0 0 123.961 123.961;"
   xml:space="preserve"
   sodipodi:docname="left-quote.svg"
   inkscape:version="0.92.5 (2060ec1f9f, 2020-04-08)"><metadata
   id="metadata43"><rdf:RDF><cc:Work
       rdf:about=""><dc:format>image/svg+xml</dc:format><dc:type
         rdf:resource="http://purl.org/dc/dcmitype/StillImage" /></cc:Work></rdf:RDF></metadata><defs
   id="defs41" /><sodipodi:namedview
   pagecolor="#505050"
   bordercolor="#eeeeee"
   borderopacity="1"
   objecttolerance="10"
   gridtolerance="10"
   guidetolerance="10"
   inkscape:pageopacity="0"
   inkscape:pageshadow="2"
   inkscape:window-width="1366"
   inkscape:window-height="697"
   id="namedview39"
   showgrid="false"
   inkscape:zoom="1.9038246"
   inkscape:cx="61.980499"
   inkscape:cy="61.980499"
   inkscape:window-x="0"
   inkscape:window-y="27"
   inkscape:window-maximized="1"
   inkscape:current-layer="Capa_1" />
<g
   id="g6"
   style="fill:#777777;fill-opacity:1">
	<path
   d="M49.8,29.032c3.1-1.3,4.4-5,3-8l-4.9-10.3c-1.4-2.899-4.8-4.2-7.8-2.899c-8.5,3.6-15.8,8.3-21.6,14   C11.4,28.532,6.6,36.232,4,44.732c-2.6,8.601-4,20.3-4,35.2v30.7c0,3.3,2.7,6,6,6h39.3c3.3,0,6-2.7,6-6v-39.3c0-3.301-2.7-6-6-6   H26.5c0.2-10.101,2.6-18.2,7-24.301C37.1,36.133,42.5,32.133,49.8,29.032z"
   id="path2"
   style="fill:#777777;fill-opacity:1" />
	<path
   d="M120.4,29.032c3.1-1.3,4.399-5,3-8l-4.9-10.199c-1.4-2.9-4.8-4.2-7.8-2.9c-8.4,3.6-15.601,8.3-21.5,13.9   c-7.101,6.8-12,14.5-14.601,23c-2.6,8.399-3.899,20.1-3.899,35.1v30.7c0,3.3,2.7,6,6,6H116c3.3,0,6-2.7,6-6v-39.3   c0-3.301-2.7-6-6-6H97.1c0.2-10.101,2.601-18.2,7-24.301C107.7,36.133,113.1,32.133,120.4,29.032z"
   id="path4"
   style="fill:#777777;fill-opacity:1" />
</g>
<g
   id="g8">
</g>
<g
   id="g10">
</g>
<g
   id="g12">
</g>
<g
   id="g14">
</g>
<g
   id="g16">
</g>
<g
   id="g18">
</g>
<g
   id="g20">
</g>
<g
   id="g22">
</g>
<g
   id="g24">
</g>
<g
   id="g26">
</g>
<g
   id="g28">
</g>
<g
   id="g30">
</g>
<g
   id="g32">
</g>
<g
   id="g34">
</g>
<g
   id="g36">
</g>
</svg>