<?xml version="1.0" encoding="UTF-8" standalone="no"?>
<svg
   xmlns:dc="http://purl.org/dc/elements/1.1/"
   xmlns:cc="http://creativecommons.org/ns#"
   xmlns:rdf="http://www.w3.org/1999/02/22-rdf-syntax-ns#"
   xmlns:svg="http://www.w3.org/2000/svg"
   xmlns="http://www.w3.org/2000/svg"
   xmlns:sodipodi="http://sodipodi.sourceforge.net/DTD/sodipodi-0.dtd"
   xmlns:inkscape="http://www.inkscape.org/namespaces/inkscape"
   id="svg17"
   xml:space="preserve"
   viewBox="0 0 155.36718 206.29749"
   height="206.29749"
   width="155.36717"
   version="1.1"
   sodipodi:docname="location-poiter.svg"
   inkscape:version="0.92.3 (2405546, 2018-03-11)"><sodipodi:namedview
   pagecolor="#505050"
   bordercolor="#eeeeee"
   borderopacity="1"
   objecttolerance="10"
   gridtolerance="10"
   guidetolerance="10"
   inkscape:pageopacity="0"
   inkscape:pageshadow="2"
   inkscape:window-width="1920"
   inkscape:window-height="1016"
   id="namedview1041"
   showgrid="false"
   fit-margin-top="0"
   fit-margin-left="0"
   fit-margin-right="0"
   fit-margin-bottom="0"
   inkscape:zoom="1.4685714"
   inkscape:cx="-52.614205"
   inkscape:cy="105.8201"
   inkscape:window-x="0"
   inkscape:window-y="27"
   inkscape:window-maximized="1"
   inkscape:current-layer="svg17" /><metadata
   id="metadata21"><rdf:RDF><cc:Work
       rdf:about=""><dc:format>image/svg+xml</dc:format><dc:type
         rdf:resource="http://purl.org/dc/dcmitype/StillImage" /><dc:title></dc:title></cc:Work></rdf:RDF></metadata>
<desc
   id="desc10">Created with Fabric.js 1.7.22</desc>
<defs
   id="defs12">
</defs>
<g
   transform="matrix(1.7367761,0,0,1.7367761,0.11853081,0)"
   style="opacity:0.98000004;fill:#ffffff;fill-opacity:1;fill-rule:nonzero;stroke:none;stroke-width:1;stroke-linecap:butt;stroke-linejoin:miter;stroke-miterlimit:10;stroke-dasharray:none"
   id="icon">
	<path
   id="path14"
   style="opacity:1;fill:#ffffff;fill-opacity:1;fill-rule:nonzero;stroke:none;stroke-width:1;stroke-linecap:butt;stroke-linejoin:miter;stroke-miterlimit:10;stroke-dasharray:none"
   d="M 45,0 C 27.677,0 13.584,14.093 13.584,31.416 c 0,4.818 1.063,9.442 3.175,13.773 2.905,5.831 11.409,20.208 20.412,35.428 l 4.385,7.417 C 42.275,89.252 43.585,90 45,90 c 1.415,0 2.725,-0.748 3.444,-1.966 l 4.382,-7.413 c 8.942,-15.116 17.392,-29.4 20.353,-35.309 0.027,-0.051 0.055,-0.103 0.08,-0.155 2.095,-4.303 3.157,-8.926 3.157,-13.741 C 76.416,14.093 62.323,0 45,0 Z m 0,42.81 c -6.892,0 -12.5,-5.607 -12.5,-12.5 0,-6.893 5.608,-12.5 12.5,-12.5 6.892,0 12.5,5.608 12.5,12.5 0,6.892 -5.608,12.5 -12.5,12.5 z"
   inkscape:connector-curvature="0" />
</g>
<text
   id="text4536"
   y="198.53186"
   x="-0.18229166"
   style="font-style:normal;font-weight:normal;font-size:40px;line-height:1.25;font-family:sans-serif;letter-spacing:0px;word-spacing:0px;fill:#000000;fill-opacity:1;stroke:none"
   xml:space="preserve"><tspan
     style="font-style:normal;font-variant:normal;font-weight:bold;font-stretch:normal;font-size:37.33333206px;font-family:sans-serif;-inkscape-font-specification:'sans-serif Bold';fill:#ffffff"
     y="198.53186"
     x="-0.18229166"
     id="tspan4534">Адреса</tspan></text>


</svg>