<?xml version="1.0" encoding="UTF-8" standalone="no"?>
<svg
   xmlns:dc="http://purl.org/dc/elements/1.1/"
   xmlns:cc="http://creativecommons.org/ns#"
   xmlns:rdf="http://www.w3.org/1999/02/22-rdf-syntax-ns#"
   xmlns:svg="http://www.w3.org/2000/svg"
   xmlns="http://www.w3.org/2000/svg"
   xmlns:sodipodi="http://sodipodi.sourceforge.net/DTD/sodipodi-0.dtd"
   xmlns:inkscape="http://www.inkscape.org/namespaces/inkscape"
   version="1.1"
   width="350"
   height="350"
   viewBox="0 0 350 350"
   xml:space="preserve"
   id="svg17"
   sodipodi:docname="locaion-poiter-ink.svg"
   inkscape:version="0.92.5 (2060ec1f9f, 2020-04-08)"><metadata
   id="metadata21"><rdf:RDF><cc:Work
       rdf:about=""><dc:format>image/svg+xml</dc:format><dc:type
         rdf:resource="http://purl.org/dc/dcmitype/StillImage" /><dc:title></dc:title></cc:Work></rdf:RDF></metadata><sodipodi:namedview
   pagecolor="#505050"
   bordercolor="#eeeeee"
   borderopacity="1"
   objecttolerance="10"
   gridtolerance="10"
   guidetolerance="10"
   inkscape:pageopacity="0"
   inkscape:pageshadow="2"
   inkscape:window-width="1366"
   inkscape:window-height="697"
   id="namedview19"
   showgrid="false"
   inkscape:zoom="1.4685714"
   inkscape:cx="50.389105"
   inkscape:cy="175"
   inkscape:window-x="0"
   inkscape:window-y="27"
   inkscape:window-maximized="1"
   inkscape:current-layer="svg17" />
<desc
   id="desc10">Created with Fabric.js 1.7.22</desc>
<defs
   id="defs12">
</defs>
<g
   id="icon"
   style="opacity:0.98;fill:#ffffff;fill-rule:nonzero;stroke:none;stroke-width:1;stroke-linecap:butt;stroke-linejoin:miter;stroke-miterlimit:10;stroke-dasharray:none;fill-opacity:1"
   transform="matrix(1.7367761,0,0,1.7367761,94.269698,47.285262)">
	<path
   d="M 45,0 C 27.677,0 13.584,14.093 13.584,31.416 c 0,4.818 1.063,9.442 3.175,13.773 2.905,5.831 11.409,20.208 20.412,35.428 l 4.385,7.417 C 42.275,89.252 43.585,90 45,90 c 1.415,0 2.725,-0.748 3.444,-1.966 l 4.382,-7.413 c 8.942,-15.116 17.392,-29.4 20.353,-35.309 0.027,-0.051 0.055,-0.103 0.08,-0.155 2.095,-4.303 3.157,-8.926 3.157,-13.741 C 76.416,14.093 62.323,0 45,0 Z m 0,42.81 c -6.892,0 -12.5,-5.607 -12.5,-12.5 0,-6.893 5.608,-12.5 12.5,-12.5 6.892,0 12.5,5.608 12.5,12.5 0,6.892 -5.608,12.5 -12.5,12.5 z"
   style="opacity:1;fill:#ffffff;fill-rule:nonzero;stroke:none;stroke-width:1;stroke-linecap:butt;stroke-linejoin:miter;stroke-miterlimit:10;stroke-dasharray:none;fill-opacity:1"
   id="path14"
   inkscape:connector-curvature="0" />
</g>
<text
   xml:space="preserve"
   style="font-style:normal;font-weight:normal;font-size:40px;line-height:1.25;font-family:sans-serif;letter-spacing:0px;word-spacing:0px;fill:#000000;fill-opacity:1;stroke:none"
   x="91.24514"
   y="245.13618"
   id="text4536"><tspan
     sodipodi:role="line"
     id="tspan4534"
     x="91.24514"
     y="245.13618"
     style="font-style:normal;font-variant:normal;font-weight:bold;font-stretch:normal;font-size:37.33333206px;font-family:sans-serif;-inkscape-font-specification:'sans-serif Bold';fill:#ffffff">Адреса</tspan></text>
</svg>