<?xml version="1.0" encoding="UTF-8" standalone="no"?>
<!-- Generator: Adobe Illustrator 16.0.0, SVG Export Plug-In . SVG Version: 6.00 Build 0)  -->

<svg
   xmlns:dc="http://purl.org/dc/elements/1.1/"
   xmlns:cc="http://creativecommons.org/ns#"
   xmlns:rdf="http://www.w3.org/1999/02/22-rdf-syntax-ns#"
   xmlns:svg="http://www.w3.org/2000/svg"
   xmlns="http://www.w3.org/2000/svg"
   xmlns:sodipodi="http://sodipodi.sourceforge.net/DTD/sodipodi-0.dtd"
   xmlns:inkscape="http://www.inkscape.org/namespaces/inkscape"
   version="1.1"
   id="Capa_1"
   x="0px"
   y="0px"
   width="975.036px"
   height="975.036px"
   viewBox="0 0 975.036 975.036"
   style="enable-background:new 0 0 975.036 975.036;"
   xml:space="preserve"
   sodipodi:docname="right-quote.svg"
   inkscape:version="0.92.5 (2060ec1f9f, 2020-04-08)"><metadata
   id="metadata43"><rdf:RDF><cc:Work
       rdf:about=""><dc:format>image/svg+xml</dc:format><dc:type
         rdf:resource="http://purl.org/dc/dcmitype/StillImage" /></cc:Work></rdf:RDF></metadata><defs
   id="defs41" /><sodipodi:namedview
   pagecolor="#505050"
   bordercolor="#eeeeee"
   borderopacity="1"
   objecttolerance="10"
   gridtolerance="10"
   guidetolerance="10"
   inkscape:pageopacity="0"
   inkscape:pageshadow="2"
   inkscape:window-width="1366"
   inkscape:window-height="697"
   id="namedview39"
   showgrid="false"
   inkscape:zoom="0.24204234"
   inkscape:cx="487.51801"
   inkscape:cy="487.51801"
   inkscape:window-x="0"
   inkscape:window-y="27"
   inkscape:window-maximized="1"
   inkscape:current-layer="Capa_1" />
<g
   id="g6"
   style="fill:#777777;fill-opacity:0.94117647">
	<path
   d="M925.036,57.197h-304c-27.6,0-50,22.4-50,50v304c0,27.601,22.4,50,50,50h145.5c-1.9,79.601-20.4,143.3-55.4,191.2   c-27.6,37.8-69.399,69.1-125.3,93.8c-25.7,11.3-36.8,41.7-24.8,67.101l36,76c11.6,24.399,40.3,35.1,65.1,24.399   c66.2-28.6,122.101-64.8,167.7-108.8c55.601-53.7,93.7-114.3,114.3-181.9c20.601-67.6,30.9-159.8,30.9-276.8v-239   C975.036,79.598,952.635,57.197,925.036,57.197z"
   id="path2"
   style="fill:#777777;fill-opacity:0.94117647" />
	<path
   d="M106.036,913.497c65.4-28.5,121-64.699,166.9-108.6c56.1-53.7,94.4-114.1,115-181.2c20.6-67.1,30.899-159.6,30.899-277.5   v-239c0-27.6-22.399-50-50-50h-304c-27.6,0-50,22.4-50,50v304c0,27.601,22.4,50,50,50h145.5c-1.9,79.601-20.4,143.3-55.4,191.2   c-27.6,37.8-69.4,69.1-125.3,93.8c-25.7,11.3-36.8,41.7-24.8,67.101l35.9,75.8C52.336,913.497,81.236,924.298,106.036,913.497z"
   id="path4"
   style="fill:#777777;fill-opacity:0.94117647" />
</g>
<g
   id="g8">
</g>
<g
   id="g10">
</g>
<g
   id="g12">
</g>
<g
   id="g14">
</g>
<g
   id="g16">
</g>
<g
   id="g18">
</g>
<g
   id="g20">
</g>
<g
   id="g22">
</g>
<g
   id="g24">
</g>
<g
   id="g26">
</g>
<g
   id="g28">
</g>
<g
   id="g30">
</g>
<g
   id="g32">
</g>
<g
   id="g34">
</g>
<g
   id="g36">
</g>
</svg>